<?xml version="1.0" encoding="UTF-8" standalone="no"?> <svg xmlns:dc="http://purl.org/dc/elements/1.1/" xmlns:cc="http://creativecommons.org/ns#" xmlns:rdf="http://www.w3.org/1999/02/22-rdf-syntax-ns#" xmlns:svg="http://www.w3.org/2000/svg" xmlns="http://www.w3.org/2000/svg" xmlns:sodipodi="http://sodipodi.sourceforge.net/DTD/sodipodi-0.dtd" xmlns:inkscape="http://www.inkscape.org/namespaces/inkscape" data-name="Camada 1" viewBox="0 0 100 100.00002" x="0px" y="0px" version="1.1" id="svg112" sodipodi:docname="rocket_logo.svg" inkscape:version="" width="29.411766" height="29.411772"><metadata id="metadata118"></metadata><defs id="defs116"></defs><title id="title84">Rocket</title><path d="m 93.020434,42.282865 c -0.75,1.19 -1.53,2.38995 -2.3501,3.6 a 38.84363,38.84363 0 0 1 0.25,4.47 40.79131,40.79131 0 0 1 -40.74,40.74 39.63032,39.63032 0 0 1 -4.52,-0.26 c -1.22,0.81 -2.41992,1.59 -3.61987,2.34 -0.49,0.31 -0.97,0.61005 -1.46,0.9 a 44.78991,44.78991 0 0 0 53.33984,-53.26 q -0.43465,0.71994 -0.89987,1.47 z" id="path86" inkscape:connector-curvature="0"></path><path d="m 9.5604737,69.172815 a 44.89636,44.89636 0 0 0 16.7600003,19.02 c 0.77,-0.36 1.58008,-0.75 2.40991,-1.18 0.6001,-0.31 1.22,-0.63 1.83008,-0.97 a 40.95748,40.95748 0 0 1 -18.52,-21.35 39.74091,39.74091 0 0 1 -1.54,-5.08 40.71692,40.71692 0 0 1 37.15,-49.9136401 l -16.8688,16.8688401 a 1.99979,1.99979 0 1 0 2.82813,2.82812 L 53.263354,9.7424649 a 40.998,40.998 0 0 1 6.10718,0.9104001 41.69837,41.69837 0 0 1 5.09985,1.54 c 1.0293,0.38733 2.03577,0.821 3.02393,1.28754 l -12.0564,12.05631 a 1.99979,1.99979 0 1 0 2.82809,2.82812 l 12.91141,-12.91138 a 41.01941,41.01941 0 0 1 14.69312,15.27936 q 0.47973,-0.88494 0.99,-1.86 c 0.34985,-0.68 0.68994,-1.39 1.03,-2.1 0.0498,-0.09 0.08984,-0.19 0.12988,-0.28 a 44.84282,44.84282 0 0 0 -19.08008,-16.7800001 42.67257,42.67257 0 0 0 -4.81982,-1.9 44.77731,44.77731 0 0 0 -56.4602103,56.5700001 46.34326,46.34326 0 0 0 1.90017,4.79 z" id="path88" inkscape:connector-curvature="0"></path><path d="m 53.517754,77.198085 a 2.00788,2.00788 0 0 0 -2.68335,-0.12945 128.61291,128.61291 0 0 1 -15.8584,11.08209 h -0.01 q -2.26337,1.32769 -4.41626,2.42413 c -11.60889,5.94476 -20.6325703,7.09149 -24.4350603,3.29932 -2.46326,-2.463 -2.838,-7.12506 -1.1792,-13.2644 a 1.95089,1.95089 0 0 0 -3.77027,-1.00446 c -2.02465994,7.50043 -1.46655994,13.53656 2.11255,17.11547 2.22324,2.22302 5.39209,3.279215 9.2651303,3.279215 6.11621,0 13.98291,-2.625355 22.68457,-7.453595 q 2.309,-1.26746 4.698,-2.76617 a 137.53771,137.53771 0 0 0 13.44116,-9.6109 2.0021,2.0021 0 0 0 0.15113,-2.97125 z" id="path90" inkscape:connector-curvature="0"></path><path d="m 96.652274,3.3445749 c -4.04566,-4.05445004 -11.2085,-4.41162 -20.51782,-1.13166 a 1.9913,1.9913 0 1 0 1.36108,3.7428 30.2289,30.2289 0 0 1 9.73083,-1.9674 c 2.87708,0 5.12049,0.73437 6.58924,2.20288 3.5813,3.581 2.74621,11.7085501 -2.31384,22.3105401 -0.35206,0.73432 -0.71424,1.46863 -1.09656,2.223 -0.7544,1.44848 -1.55921,2.92706 -2.43433,4.41583 a 129.48268,129.48268 0 0 1 -11.21924,16.0278 1.993,1.993 0 0 0 0.12891,2.66711 l 0.03662,0.0366 a 1.99406,1.99406 0 0 0 2.95532,-0.14843 140.40859,140.40859 0 0 0 9.75818,-13.56372 q 1.47876,-2.36885 2.76648,-4.68744 1.50879,-2.6555 2.73621,-5.2406 c 5.915156,-12.40259 6.458366,-21.9585001 1.51892,-26.8873301 z" id="path92" inkscape:connector-curvature="0"></path><path d="m 72.959644,61.974885 a 2.51462,2.51462 0 1 0 -3.5564,-3.556 l -3.26147,3.26123 a 11.407,11.407 0 0 1 -11.51855,2.8053 l -0.17579,-0.0559 a 2.5148827,2.5148827 0 1 0 -1.52282,4.7937 l 2.48388,0.78894 a 9.60278,9.60278 0 0 1 2.191,1.02356 l -0.78711,0.787 a 2.0116198,2.0116198 0 1 0 2.845,2.84472 l 0.82788,-0.82769 a 9.59575,9.59575 0 0 1 1.10374,2.20082 l 0.83715,2.42462 a 2.5148536,2.5148536 0 0 0 4.7544,-1.64123 11.40463,11.40463 0 0 1 2.71635,-11.78681 z" id="path94" inkscape:connector-curvature="0"></path><circle cx="73.69603" cy="32.086212" r="2.10445" id="circle96"></circle><circle cx="78.19603" cy="92.91954" r="2.10445" id="circle98"></circle><circle cx="90.35228" cy="82.586212" r="2.10445" id="circle100"></circle><circle cx="7.539784" cy="19.919538" r="2.10445" id="circle102"></circle><circle cx="4.171874" cy="4.1719041" r="4.1718702" id="circle104"></circle><circle cx="95.828117" cy="95.828156" r="4.1718702" id="circle106"></circle></svg> 